<mxfile host="app.diagrams.net" modified="2023-12-18T04:41:33.136Z" agent="Mozilla/5.0 (Macintosh; Intel Mac OS X 10_15_7) AppleWebKit/537.36 (KHTML, like Gecko) Chrome/120.0.0.0 Safari/537.36 Edg/120.0.0.0" etag="jXHaMSOKfVv9qD7QbFc9" version="22.1.11" type="github">
  <diagram name="Page-1" id="MM4lBc3isKhv1aYaFMYS">
    <mxGraphModel dx="584" dy="828" grid="1" gridSize="10" guides="1" tooltips="1" connect="1" arrows="1" fold="1" page="1" pageScale="1" pageWidth="850" pageHeight="1100" math="0" shadow="0">
      <root>
        <mxCell id="0" />
        <mxCell id="1" parent="0" />
        <mxCell id="tfxQ25nDx0aV2IUllxwm-1" value="An Instant of Class" style="rounded=0;whiteSpace=wrap;html=1;fillColor=#6a00ff;fontColor=#ffffff;strokeColor=#3700CC;" vertex="1" parent="1">
          <mxGeometry x="1500" y="40" width="120" height="50" as="geometry" />
        </mxCell>
        <mxCell id="tfxQ25nDx0aV2IUllxwm-2" value="&amp;lt;An Interface Abstraction&amp;gt;" style="rounded=0;whiteSpace=wrap;html=1;fillColor=#1ba1e2;fontColor=#ffffff;strokeColor=#006EAF;" vertex="1" parent="1">
          <mxGeometry x="1500" y="120" width="155" height="50" as="geometry" />
        </mxCell>
        <mxCell id="tfxQ25nDx0aV2IUllxwm-3" value="" style="endArrow=classic;html=1;rounded=0;align=left;fillColor=#e51400;strokeColor=#B20000;" edge="1" parent="1">
          <mxGeometry width="50" height="50" relative="1" as="geometry">
            <mxPoint x="1500" y="190" as="sourcePoint" />
            <mxPoint x="1660" y="190" as="targetPoint" />
          </mxGeometry>
        </mxCell>
        <mxCell id="tfxQ25nDx0aV2IUllxwm-4" value="A SOLID Arrow, SOLID head:&lt;br&gt;Strong dependent on" style="text;html=1;align=left;verticalAlign=middle;resizable=0;points=[];autosize=1;strokeColor=#B20000;fillColor=#e51400;fontColor=#ffffff;" vertex="1" parent="1">
          <mxGeometry x="1500" y="205" width="180" height="40" as="geometry" />
        </mxCell>
        <mxCell id="tfxQ25nDx0aV2IUllxwm-5" value="" style="endArrow=block;html=1;rounded=0;align=left;fillColor=#d80073;strokeColor=#A50040;endFill=0;" edge="1" parent="1">
          <mxGeometry width="50" height="50" relative="1" as="geometry">
            <mxPoint x="1500" y="280" as="sourcePoint" />
            <mxPoint x="1660" y="280" as="targetPoint" />
          </mxGeometry>
        </mxCell>
        <mxCell id="tfxQ25nDx0aV2IUllxwm-6" value="A SOLID Arrow, EMPTY head:&lt;br&gt;A Class Inherits from other class" style="text;html=1;align=left;verticalAlign=middle;resizable=0;points=[];autosize=1;strokeColor=#A50040;fillColor=#d80073;fontColor=#ffffff;" vertex="1" parent="1">
          <mxGeometry x="1500" y="295" width="200" height="40" as="geometry" />
        </mxCell>
        <mxCell id="tfxQ25nDx0aV2IUllxwm-7" value="" style="endArrow=block;html=1;rounded=0;align=left;fillColor=#008a00;strokeColor=#005700;dashed=1;endFill=0;" edge="1" parent="1">
          <mxGeometry width="50" height="50" relative="1" as="geometry">
            <mxPoint x="1500" y="365" as="sourcePoint" />
            <mxPoint x="1660" y="365" as="targetPoint" />
          </mxGeometry>
        </mxCell>
        <mxCell id="tfxQ25nDx0aV2IUllxwm-8" value="A DASH Arrow, EMPTY head:&lt;br&gt;Conform to or Implement of" style="text;html=1;align=left;verticalAlign=middle;resizable=0;points=[];autosize=1;strokeColor=#005700;fillColor=#008a00;fontColor=#ffffff;" vertex="1" parent="1">
          <mxGeometry x="1500" y="380" width="180" height="40" as="geometry" />
        </mxCell>
        <mxCell id="tfxQ25nDx0aV2IUllxwm-9" value="" style="endArrow=classic;html=1;rounded=0;align=left;dashed=1;endFill=1;fillColor=#a20025;strokeColor=#6F0000;" edge="1" parent="1">
          <mxGeometry width="50" height="50" relative="1" as="geometry">
            <mxPoint x="1500" y="450" as="sourcePoint" />
            <mxPoint x="1660" y="450" as="targetPoint" />
          </mxGeometry>
        </mxCell>
        <mxCell id="tfxQ25nDx0aV2IUllxwm-10" value="A DASH Arrow, SOLID head:&lt;br&gt;Weak reference" style="text;html=1;align=left;verticalAlign=middle;resizable=0;points=[];autosize=1;fillColor=#a20025;fontColor=#ffffff;strokeColor=#6F0000;" vertex="1" parent="1">
          <mxGeometry x="1500" y="465" width="180" height="40" as="geometry" />
        </mxCell>
      </root>
    </mxGraphModel>
  </diagram>
</mxfile>
